:SAMPLES-PER-SECOND 30
:FULLY-SPECIFIED
:DEGREES
375
root  -2.35822 41.0125 -0.359461 1.38782 -62.2064 1.65765
RightUpLeg  3.7738 -3.32664 -1.09032
RightLeg  -11.4208 -47.7743 10.2563
RightFoot  1.63907 -0.186265 1.73478
RightToes  -3.10678e-008 1.75238e-005 3.56266e-009
Spine  19.2242 3.13905 -2.10795
Spine1  -22.4586 2.77611 1.69229
HEad  -13.7699 -6.62823 0.932152
LeftShoulder1  0.313751 2.16344 -16.6608
LeftArm  -14.278 -3.23143 -58.8105
LeftForeArm  122.455 -79.906 -109.884
LeftHand  -0.548992 -4.63423 6.63592
RightShoulder  0.988187 0.398746 18.9329
RightArm  3.6794 -18.3366 48.9529
RightForeArm  78.4362 79.7089 75.1121
RightHand  -0.282492 8.27699 -2.77342
LeftUpLeg  -4.50602 -0.564897 1.15508
LeftLeg  -4.25595 -7.11776 -0.938604
LeftFoot  5.28871 0.725664 -5.18355
LeftToes  4.7643e-008 1.47522e-008 1.32869e-009
376
root  -2.20568 41.0072 -0.416147 1.54272 -62.1873 1.51843
RightUpLeg  3.27691 -3.284 -1.0304
RightLeg  -10.8922 -47.9281 9.89565
RightFoot  1.65325 -0.166626 1.56125
RightToes  -3.10678e-008 1.75238e-005 3.56266e-009
Spine  19.8795 2.96808 -3.6889
Spine1  -21.6897 2.42109 4.08803
HEad  -13.7365 -7.78081 1.1449
LeftShoulder1  0.291903 2.25313 -16.5857
LeftArm  -16.1161 -8.07545 -58.7044
LeftForeArm  122.639 -79.8526 -110.443
LeftHand  -0.677912 -5.18786 7.74691
RightShoulder  1.01412 0.451911 19.2655
RightArm  4.15898 -20.0867 48.5188
RightForeArm  68.0755 79.0194 64.6725
RightHand  -0.308773 8.19369 -3.00983
LeftUpLeg  -4.73278 -0.716613 1.13792
LeftLeg  -4.43858 -6.99442 -0.819786
LeftFoot  5.69739 0.719718 -5.03707
LeftToes  4.7643e-008 1.47522e-008 1.32869e-009
377
root  -2.01588 40.9966 -0.464636 2.00177 -62.6137 1.38776
RightUpLeg  2.38994 -3.30187 -1.07193
RightLeg  -10.3912 -47.6018 9.63915
RightFoot  1.72684 -0.141255 1.33646
RightToes  -3.10678e-008 1.75238e-005 3.56266e-009
Spine  21.0826 3.0304 -4.26041
Spine1  -22.1118 2.38165 5.08421
HEad  -13.5872 -8.14742 1.2188
LeftShoulder1  0.336092 2.06013 -16.4795
LeftArm  -17.9033 -11.9073 -57.9421
LeftForeArm  122.571 -79.8758 -110.203
LeftHand  -0.667774 -5.36299 7.50667
RightShoulder  0.942483 0.201498 19.0522
RightArm  4.03942 -22.3072 48.8872
RightForeArm  61.2594 78.2341 57.0777
RightHand  -0.319544 8.27598 -3.08703
LeftUpLeg  -5.38708 -0.862791 1.14961
LeftLeg  -4.43321 -6.47983 -0.80415
LeftFoot  6.04355 0.70079 -4.71697
LeftToes  4.7643e-008 1.47522e-008 1.32869e-009
378
root  -1.8106 40.9896 -0.499416 2.72754 -63.4536 1.12622
RightUpLeg  1.43081 -3.19303 -1.04477
RightLeg  -10.2437 -46.9142 9.55239
RightFoot  2.02146 -0.115677 1.10412
RightToes  -3.10678e-008 1.75238e-005 3.56266e-009
Spine  21.5898 2.94362 -4.5412
Spine1  -21.7594 2.22322 5.52531
HEad  -13.3934 -8.657 1.87624
LeftShoulder1  0.243297 2.42982 -15.8524
LeftArm  -19.8387 -15.038 -57.4866
LeftForeArm  121.539 -79.9407 -109.158
LeftHand  -0.594803 -4.80057 7.06959
RightShoulder  1.05651 0.546864 19.7563
RightArm  3.83498 -23.5552 48.4292
RightForeArm  56.8711 77.4938 51.6329
RightHand  -0.271621 8.15515 -2.69787
LeftUpLeg  -6.16282 -0.962085 1.2455
LeftLeg  -4.46019 -5.59693 -0.80455
LeftFoot  6.3793 0.693116 -4.59113
LeftToes  4.7643e-008 1.47522e-008 1.32869e-009
379
root  -1.62534 40.9828 -0.524592 3.35809 -64.4537 1.06561
RightUpLeg  0.238959 -3.04544 -1.05929
RightLeg  -9.5857 -46.1238 8.98267
RightFoot  2.22707 -0.101832 0.984451
RightToes  -3.10678e-008 1.75238e-005 3.56266e-009
Spine  22.1546 3.19601 -4.67921
Spine1  -21.5194 2.40676 5.88733
HEad  -13.7304 -8.8761 1.79369
LeftShoulder1  0.296166 2.21121 -16.1268
LeftArm  -21.5904 -16.9447 -56.0754
LeftForeArm  121.844 -79.9003 -109.665
LeftHand  -0.693511 -5.23225 7.87902
RightShoulder  1.02602 0.451197 19.5902
RightArm  3.76886 -24.7145 48.6244
RightForeArm  54.5669 77.0705 49.2803
RightHand  -0.21271 7.9946 -2.21629
LeftUpLeg  -6.86089 -1.12527 1.29607
LeftLeg  -4.7118 -4.47809 -0.836577
LeftFoot  6.73436 0.689941 -4.54405
LeftToes  4.7643e-008 1.47522e-008 1.32869e-009
380
root  -1.42949 40.9781 -0.528895 4.13678 -65.3175 0.777283
RightUpLeg  -0.498706 -2.90136 -1.0502
RightLeg  -10.1276 -45.4403 9.38728
RightFoot  2.65498 -0.0626783 0.657839
RightToes  -3.10678e-008 1.75238e-005 3.56266e-009
Spine  22.4265 3.40361 -4.97178
Spine1  -20.8943 2.53098 6.64125
HEad  -14.0842 -9.11588 1.78435
LeftShoulder1  0.28262 2.27841 -16.2853
LeftArm  -23.1483 -18.1732 -55.1519
LeftForeArm  121.603 -79.9644 -108.967
LeftHand  -0.798588 -6.0559 8.43899
RightShoulder  0.950786 0.223308 19.1343
RightArm  4.449 -24.5172 48.712
RightForeArm  51.3918 76.4309 46.1305
RightHand  -0.239789 8.07491 -2.43793
LeftUpLeg  -7.53745 -1.2053 1.39181
LeftLeg  -4.89641 -3.4718 -0.858443
LeftFoot  7.06783 0.687593 -4.50836
LeftToes  4.7643e-008 1.47522e-008 1.32869e-009
381
root  -1.24851 40.9703 -0.551863 4.86542 -65.9796 0.496521
RightUpLeg  -1.29062 -2.63719 -0.945355
RightLeg  -10.3305 -45.0596 9.42516
RightFoot  3.01384 -0.0297794 0.400128
RightToes  -3.10678e-008 1.75238e-005 3.56266e-009
Spine  22.7908 3.38618 -4.92354
Spine1  -20.4482 2.47823 6.69758
HEad  -13.7326 -9.35875 2.2886
LeftShoulder1  0.294696 2.22955 -16.3533
LeftArm  -24.1691 -18.9139 -54.0486
LeftForeArm  120.051 -79.966 -108.241
LeftHand  -0.711515 -5.32718 7.87644
RightShoulder  1.09978 0.72824 19.6453
RightArm  4.2888 -24.5183 48.2538
RightForeArm  49.6277 76.1163 44.8998
RightHand  -0.288666 8.12657 -2.85035
LeftUpLeg  -8.1876 -1.15316 1.56238
LeftLeg  -5.02814 -2.74927 -0.998993
LeftFoot  7.34729 0.680442 -4.40676
LeftToes  4.7643e-008 1.47522e-008 1.32869e-009
382
root  -1.08006 40.9635 -0.557372 5.3363 -66.5496 0.341553
RightUpLeg  -2.02847 -2.49692 -0.939924
RightLeg  -10.0972 -44.6236 9.18549
RightFoot  3.25305 0.00175253 0.159316
RightToes  -3.10678e-008 1.75238e-005 3.56266e-009
Spine  23.235 3.43992 -4.87032
Spine1  -20.0004 2.49421 6.80906
HEad  -13.0739 -9.54105 1.91047
LeftShoulder1  0.31514 2.14792 -16.4819
LeftArm  -24.7455 -19.1151 -53.2619
LeftForeArm  118.732 -80.0173 -107.122
LeftHand  -0.34699 -4.42828 4.41988
RightShoulder  1.11092 0.75614 19.7391
RightArm  3.96976 -24.2457 48.289
RightForeArm  48.8244 76.0044 44.5591
RightHand  -0.265822 8.30953 -2.62734
LeftUpLeg  -8.59801 -1.2327 1.61021
LeftLeg  -5.32425 -2.02973 -1.01673
LeftFoot  7.65435 0.708302 -4.51101
LeftToes  4.7643e-008 1.47522e-008 1.32869e-009
383
root  -0.889056 40.9544 -0.558012 5.95709 -66.8657 0.342102
RightUpLeg  -3.19472 -2.5779 -1.10776
RightLeg  -9.55051 -44.2722 8.92018
RightFoot  3.42196 -0.00497909 0.21884
RightToes  -3.10678e-008 1.75238e-005 3.56266e-009
Spine  23.3214 3.32554 -4.68294
Spine1  -19.3992 2.36225 6.74392
HEad  -12.2783 -9.60882 1.92212
LeftShoulder1  0.327658 2.08699 -16.3567
LeftArm  -25.3551 -19.8294 -52.8001
LeftForeArm  116.906 -80.1034 -105.309
LeftHand  -0.517581 -4.95899 6.11357
RightShoulder  1.0833 0.649416 19.7487
RightArm  3.73199 -23.5853 48.5294
RightForeArm  48.0862 75.8201 43.7944
RightHand  -0.25732 8.37552 -2.54714
LeftUpLeg  -9.48652 -1.47448 1.58744
LeftLeg  -5.42327 -1.40124 -1.01988
LeftFoot  7.91424 0.79113 -4.94736
LeftToes  4.7643e-008 1.47522e-008 1.32869e-009
384
root  -0.730277 40.9442 -0.574502 6.5177 -67.2262 0.271851
RightUpLeg  -3.97143 -2.46077 -1.12824
RightLeg  -9.67243 -44.0454 8.98265
RightFoot  3.68383 0.015156 0.0771003
RightToes  -3.10678e-008 1.75238e-005 3.56266e-009
Spine  23.6228 3.31615 -4.60536
Spine1  -19.1322 2.33804 6.55835
HEad  -11.7482 -9.79744 2.20465
LeftShoulder1  0.347638 1.98506 -16.1002
LeftArm  -25.647 -21.2694 -52.9591
LeftForeArm  113.966 -80.2575 -101.997
LeftHand  -0.459615 -4.8685 5.4984
RightShoulder  1.13917 0.822115 20.0063
RightArm  3.50716 -23.494 48.3864
RightForeArm  47.064 75.7656 43.8619
RightHand  -0.345424 8.0535 -3.34928
LeftUpLeg  -10.21 -1.4727 1.68413
LeftLeg  -5.47162 -0.869782 -1.15596
LeftFoot  8.00547 0.870449 -5.39151
LeftToes  4.7643e-008 1.47522e-008 1.32869e-009
385
root  -0.587844 40.9449 -0.5797 7.07629 -67.7185 0.0211182
RightUpLeg  -4.51127 -2.31175 -1.09374
RightLeg  -9.87567 -43.6294 9.09924
RightFoot  3.99905 0.0563839 -0.216149
RightToes  -3.10678e-008 1.75238e-005 3.56266e-009
Spine  24.2468 3.33482 -4.60083
Spine1  -19.2045 2.34766 6.47597
HEad  -11.1005 -10.0799 2.57038
LeftShoulder1  0.337118 2.00496 -15.6652
LeftArm  -25.7269 -22.8312 -53.0711
LeftForeArm  113.812 -80.2385 -102.124
LeftHand  -0.414688 -4.93142 4.9634
RightShoulder  1.24099 1.13362 20.4685
RightArm  3.18155 -23.8949 48.1766
RightForeArm  46.0156 75.5428 43.064
RightHand  -0.327426 7.92022 -3.22031
LeftUpLeg  -10.6353 -1.34447 1.86477
LeftLeg  -5.63467 -0.242559 -1.31428
LeftFoot  8.01076 1.00415 -6.17268
LeftToes  4.7643e-008 1.47522e-008 1.32869e-009
386
root  -0.447099 40.939 -0.575688 7.62006 -68.3634 -0.134277
RightUpLeg  -5.36871 -2.30818 -1.16786
RightLeg  -9.3458 -42.9518 8.77631
RightFoot  4.18243 0.0626065 -0.248875
RightToes  -3.10678e-008 1.75238e-005 3.56266e-009
Spine  24.5546 3.45442 -4.71931
Spine1  -18.9945 2.4196 6.63791
HEad  -10.5841 -10.0837 2.9503
LeftShoulder1  0.327083 2.04415 -15.5891
LeftArm  -25.3362 -26.0273 -53.2909
LeftForeArm  112.091 -80.2992 -100.359
LeftHand  -0.492977 -4.79507 5.91422
RightShoulder  1.22627 1.09954 20.3328
RightArm  3.22609 -24.1274 48.4812
RightForeArm  43.1228 74.693 39.9876
RightHand  -0.397785 7.91579 -3.83945
LeftUpLeg  -11.1589 -1.406 1.9444
LeftLeg  -5.71112 0.597061 -1.36079
LeftFoot  8.05454 1.06511 -6.51616
LeftToes  4.7643e-008 1.47522e-008 1.32869e-009
387
root  -0.342179 40.9377 -0.562514 8.38159 -69.0704 -0.629944
RightUpLeg  -5.75463 -2.15071 -1.08536
RightLeg  -9.64822 -42.2357 8.95801
RightFoot  4.52266 0.0845479 -0.384585
RightToes  -3.10678e-008 1.75238e-005 3.56266e-009
Spine  25.0268 3.4959 -5.02749
Spine1  -19.1262 2.394 7.18121
HEad  -10.0153 -9.88405 3.10856
LeftShoulder1  0.344866 1.93805 -15.1361
LeftArm  -25.5842 -29.7003 -53.6388
LeftForeArm  113.202 -80.2882 -101.158
LeftHand  -0.48535 -4.75455 5.84739
RightShoulder  1.21075 1.07024 20.1479
RightArm  3.39241 -24.9427 48.8744
RightForeArm  40.4989 73.5442 36.4011
RightHand  -0.45186 7.63252 -4.3948
LeftUpLeg  -11.5619 -1.32606 2.12842
LeftLeg  -5.68551 1.26545 -1.41073
LeftFoot  8.06139 1.08363 -6.6219
LeftToes  4.7643e-008 1.47522e-008 1.32869e-009
388
root  -0.258331 40.936 -0.517673 9.27692 -70.1625 -1.28113
RightUpLeg  -6.03698 -1.78962 -0.922506
RightLeg  -10.1975 -41.5273 9.13436
RightFoot  4.96959 0.0755738 -0.290142
RightToes  -3.10678e-008 1.75238e-005 3.56266e-009
Spine  25.6703 3.34229 -5.63854
Spine1  -19.9044 2.15569 8.01323
HEad  -8.82137 -9.02737 2.85351
LeftShoulder1  0.236398 2.40668 -14.6398
LeftArm  -25.6168 -32.851 -53.9558
LeftForeArm  117.81 -80.1611 -105.158
LeftHand  -0.505068 -4.84089 6.027
RightShoulder  1.35631 1.56384 20.462
RightArm  3.78163 -25.9487 48.7197
RightForeArm  37.3151 71.9217 32.282
RightHand  -0.293527 8.27514 -2.86354
LeftUpLeg  -11.9211 -1.18801 2.32642
LeftLeg  -5.53201 2.18696 -1.48487
LeftFoot  8.0662 1.00229 -6.14695
LeftToes  4.7643e-008 1.47522e-008 1.32869e-009
